
****** Lies.and.Illusions.2009.DVDRiP.XViD.OPTIONAL.NORDIC-Zen_Bud ******

Format                           : AVI
File size                        : 706 MiB
Duration                         : 1h 28mn
Overall bit rate                 : 1 111 Kbps

Video

Format                           : MPEG-4 Visual
Codec ID/Hint                    : XviD
Duration                         : 1h 28mn
Bit rate                         : 970 Kbps
Width                            : 720 pixels
Height                           : 552 pixels
Display aspect ratio             : 1.855
Stream size                      : 616 MiB (87%)
Writing library                  : XviD 1.1.2 (UTC 2006-11-01)

Audio

Format                           : MPEG Audio
Codec ID/Hint                    : MP3
Duration                         : 1h 28mn
Bit rate                         : 128 Kbps
Channel(s)                       : 2 channels
Sampling rate                    : 48.0 KHz
Stream size                      : 81.3 MiB (12%)
Language                         : English

Text #1
Language                         : Danish

Text #2
Language                         : Swedish

Text #3
Language                         : Norwegian

Text #4
Language                         : Finnish

